<mxfile host="app.diagrams.net" agent="Mozilla/5.0 (Windows NT 10.0; Win64; x64) AppleWebKit/537.36 (KHTML, like Gecko) Chrome/131.0.0.0 Safari/537.36" version="26.0.4">
  <diagram name="Page-1" id="_glZEqZVL1R0Z9tzBR_x">
    <mxGraphModel dx="1593" dy="751" grid="1" gridSize="10" guides="1" tooltips="1" connect="1" arrows="1" fold="1" page="1" pageScale="1" pageWidth="1100" pageHeight="850" math="0" shadow="0">
      <root>
        <mxCell id="0" />
        <mxCell id="1" parent="0" />
        <mxCell id="LN72UwpNqsgzN4k3Lupj-8" style="edgeStyle=orthogonalEdgeStyle;rounded=0;orthogonalLoop=1;jettySize=auto;html=1;" edge="1" parent="1" source="LN72UwpNqsgzN4k3Lupj-1" target="LN72UwpNqsgzN4k3Lupj-6">
          <mxGeometry relative="1" as="geometry" />
        </mxCell>
        <mxCell id="LN72UwpNqsgzN4k3Lupj-1" value="PSU&lt;div&gt;220VAC&lt;/div&gt;&lt;div&gt;12VDC&lt;/div&gt;" style="rounded=0;whiteSpace=wrap;html=1;" vertex="1" parent="1">
          <mxGeometry x="10" y="280" width="160" height="380" as="geometry" />
        </mxCell>
        <mxCell id="LN72UwpNqsgzN4k3Lupj-2" value="ATmega328" style="rounded=0;whiteSpace=wrap;html=1;" vertex="1" parent="1">
          <mxGeometry x="370" y="580" width="120" height="60" as="geometry" />
        </mxCell>
        <mxCell id="LN72UwpNqsgzN4k3Lupj-3" value="sim800l" style="whiteSpace=wrap;html=1;aspect=fixed;" vertex="1" parent="1">
          <mxGeometry x="680" y="430" width="80" height="80" as="geometry" />
        </mxCell>
        <mxCell id="LN72UwpNqsgzN4k3Lupj-9" style="edgeStyle=orthogonalEdgeStyle;rounded=0;orthogonalLoop=1;jettySize=auto;html=1;exitX=1;exitY=0.5;exitDx=0;exitDy=0;" edge="1" parent="1" source="LN72UwpNqsgzN4k3Lupj-6" target="LN72UwpNqsgzN4k3Lupj-7">
          <mxGeometry relative="1" as="geometry" />
        </mxCell>
        <mxCell id="LN72UwpNqsgzN4k3Lupj-11" style="edgeStyle=orthogonalEdgeStyle;rounded=0;orthogonalLoop=1;jettySize=auto;html=1;entryX=0.5;entryY=0;entryDx=0;entryDy=0;" edge="1" parent="1" source="LN72UwpNqsgzN4k3Lupj-6" target="LN72UwpNqsgzN4k3Lupj-2">
          <mxGeometry relative="1" as="geometry">
            <Array as="points">
              <mxPoint x="430" y="470" />
            </Array>
          </mxGeometry>
        </mxCell>
        <mxCell id="LN72UwpNqsgzN4k3Lupj-6" value="Buck&lt;div&gt;12VDC-5VDC&lt;/div&gt;" style="whiteSpace=wrap;html=1;aspect=fixed;" vertex="1" parent="1">
          <mxGeometry x="290" y="430" width="80" height="80" as="geometry" />
        </mxCell>
        <mxCell id="LN72UwpNqsgzN4k3Lupj-10" style="edgeStyle=orthogonalEdgeStyle;rounded=0;orthogonalLoop=1;jettySize=auto;html=1;exitX=1;exitY=0.5;exitDx=0;exitDy=0;entryX=0;entryY=0.5;entryDx=0;entryDy=0;" edge="1" parent="1" source="LN72UwpNqsgzN4k3Lupj-7" target="LN72UwpNqsgzN4k3Lupj-3">
          <mxGeometry relative="1" as="geometry" />
        </mxCell>
        <mxCell id="LN72UwpNqsgzN4k3Lupj-7" value="Buck&lt;div&gt;5VDC-4.1VDC&lt;/div&gt;" style="whiteSpace=wrap;html=1;aspect=fixed;" vertex="1" parent="1">
          <mxGeometry x="490" y="430" width="80" height="80" as="geometry" />
        </mxCell>
        <mxCell id="LN72UwpNqsgzN4k3Lupj-13" value="IN 4.1VDC" style="text;html=1;align=center;verticalAlign=middle;whiteSpace=wrap;rounded=0;" vertex="1" parent="1">
          <mxGeometry x="620" y="430" width="60" height="30" as="geometry" />
        </mxCell>
        <mxCell id="LN72UwpNqsgzN4k3Lupj-14" value="IN 5VDC" style="text;html=1;align=center;verticalAlign=middle;whiteSpace=wrap;rounded=0;" vertex="1" parent="1">
          <mxGeometry x="440" y="540" width="60" height="30" as="geometry" />
        </mxCell>
      </root>
    </mxGraphModel>
  </diagram>
</mxfile>
